<svg width="848" height="520" xmlns="http://www.w3.org/2000/svg" version="1.1"><g transform="translate(0, 10)"><g class="links" fill="none" stroke-opacity="0.4"><path d="M5,128.64257812500003C143,128.64257812500003,143,48.642578125,281,48.642578125" stroke-width="57.28515625" style="stroke: rgb(191, 105, 105);"></path><path d="M5,178.75000000000003C143,178.75000000000003,143,204.9999999999997,281,204.9999999999997" stroke-width="42.9296875" style="stroke: rgb(191, 105, 105);"></path><path d="M5,237.40234375000003C143,237.40234375000003,143,364.2578125,281,364.2578125" stroke-width="3.28125" style="stroke: rgb(191, 105, 105);"></path><path d="M5,210.94726562500003C143,210.94726562500003,143,267.1582031249998,281,267.1582031249998" stroke-width="21.46484375" style="stroke: rgb(191, 105, 105);"></path><path d="M5,240.06835937500003C143,240.06835937500003,143,376.923828125,281,376.923828125" stroke-width="2.05078125" style="stroke: rgb(191, 105, 105);"></path><path d="M5,241.23046875000003C143,241.23046875000003,143,398.6328125,281,398.6328125" stroke-width="0.2734375" style="stroke: rgb(191, 105, 105);"></path><path d="M5,241.43554687500003C143,241.43554687500003,143,429.248046875,281,429.248046875" stroke-width="0.13671875" style="stroke: rgb(191, 105, 105);"></path><path d="M5,234.66796875000003C143,234.66796875000003,143,313.7499999999999,281,313.7499999999999" stroke-width="0.8203125" style="stroke: rgb(191, 105, 105);"></path><path d="M5,227.96875000000003C143,227.96875000000003,143,296.6406249999999,281,296.6406249999999" stroke-width="12.578125" style="stroke: rgb(191, 105, 105);"></path><path d="M5,235.35156250000003C143,235.35156250000003,143,333.8671874999999,281,333.8671874999999" stroke-width="0.546875" style="stroke: rgb(191, 105, 105);"></path><path d="M5,235.69335937500003C143,235.69335937500003,143,348.173828125,281,348.173828125" stroke-width="0.13671875" style="stroke: rgb(191, 105, 105);"></path><path d="M5,241.57226562500003C143,241.57226562500003,143,479.931640625,281,479.931640625" stroke-width="0.13671875" style="stroke: rgb(191, 105, 105);"></path><path d="M5,297.0312500000001C143,297.0312500000001,143,122.67578125,281,122.67578125" stroke-width="90.78125" style="stroke: rgb(191, 116, 105);"></path><path d="M5,347.0703125000001C143,347.0703125000001,143,231.1132812499997,281,231.1132812499997" stroke-width="9.296875" style="stroke: rgb(191, 116, 105);"></path><path d="M5,356.4355468750001C143,356.4355468750001,143,318.8769531249999,281,318.8769531249999" stroke-width="9.43359375" style="stroke: rgb(191, 116, 105);"></path><path d="M5,369.9707031250001C143,369.9707031250001,143,439.384765625,281,439.384765625" stroke-width="0.13671875" style="stroke: rgb(191, 116, 105);"></path><path d="M5,367.3046875000001C143,367.3046875000001,143,350.4296875,281,350.4296875" stroke-width="4.375" style="stroke: rgb(191, 116, 105);"></path><path d="M5,363.1347656250001C143,363.1347656250001,143,336.1230468749999,281,336.1230468749999" stroke-width="3.96484375" style="stroke: rgb(191, 116, 105);"></path><path d="M5,370.2441406250001C143,370.2441406250001,143,459.658203125,281,459.658203125" stroke-width="0.13671875" style="stroke: rgb(191, 116, 105);"></path><path d="M5,369.6289062500001C143,369.6289062500001,143,408.90625,281,408.90625" stroke-width="0.2734375" style="stroke: rgb(191, 116, 105);"></path><path d="M5,369.8339843750001C143,369.8339843750001,143,419.111328125,281,419.111328125" stroke-width="0.13671875" style="stroke: rgb(191, 116, 105);"></path><path d="M5,370.1074218750001C143,370.1074218750001,143,449.521484375,281,449.521484375" stroke-width="0.13671875" style="stroke: rgb(191, 116, 105);"></path><path d="M5,370.3808593750001C143,370.3808593750001,143,469.794921875,281,469.794921875" stroke-width="0.13671875" style="stroke: rgb(191, 116, 105);"></path><path d="M5,383.1835937500001C143,383.1835937500001,143,170.80078125,281,170.80078125" stroke-width="5.46875" style="stroke: rgb(191, 128, 105);"></path><path d="M5,391.2500000000001C143,391.2500000000001,143,241.0937499999997,281,241.0937499999997" stroke-width="10.6640625" style="stroke: rgb(191, 128, 105);"></path><path d="M5,399.7265625000001C143,399.7265625000001,143,388.22265625,281,388.22265625" stroke-width="0.546875" style="stroke: rgb(191, 128, 105);"></path><path d="M5,397.8125000000001C143,397.8125000000001,143,279.1210937499998,281,279.1210937499998" stroke-width="2.4609375" style="stroke: rgb(191, 128, 105);"></path><path d="M5,399.2480468750001C143,399.2480468750001,143,303.1347656249999,281,303.1347656249999" stroke-width="0.41015625" style="stroke: rgb(191, 128, 105);"></path><path d="M286,68.193359375C424,68.193359375,424,48.19335937499994,562,48.19335937499994" stroke-width="96.38671875" style="stroke: rgb(191, 139, 105);"></path><path d="M286,170.048828125C424,170.048828125,424,344.73632812500017,562,344.73632812500017" stroke-width="0.95703125" style="stroke: rgb(191, 139, 105);"></path><path d="M286,131.015625C424,131.015625,424,184.86328125000006,562,184.86328125000006" stroke-width="29.2578125" style="stroke: rgb(191, 139, 105);"></path><path d="M286,172.578125C424,172.578125,424,398.08593750000017,562,398.08593750000017" stroke-width="0.2734375" style="stroke: rgb(191, 139, 105);"></path><path d="M286,168.955078125C424,168.955078125,424,332.54882812500017,562,332.54882812500017" stroke-width="1.23046875" style="stroke: rgb(191, 139, 105);"></path><path d="M286,167.3828125C424,167.3828125,424,320.29296875000017,562,320.29296875000017" stroke-width="1.9140625" style="stroke: rgb(191, 139, 105);"></path><path d="M286,172.8515625C424,172.8515625,424,418.63281250000017,562,418.63281250000017" stroke-width="0.2734375" style="stroke: rgb(191, 139, 105);"></path><path d="M286,173.193359375C424,173.193359375,424,449.24804687500006,562,449.24804687500006" stroke-width="0.13671875" style="stroke: rgb(191, 139, 105);"></path><path d="M286,173.330078125C424,173.330078125,424,469.52148437500006,562,469.52148437500006" stroke-width="0.13671875" style="stroke: rgb(191, 139, 105);"></path><path d="M286,170.80078125C424,170.80078125,424,355.62500000000017,562,355.62500000000017" stroke-width="0.546875" style="stroke: rgb(191, 139, 105);"></path><path d="M286,173.056640625C424,173.056640625,424,439.11132812500006,562,439.11132812500006" stroke-width="0.13671875" style="stroke: rgb(191, 139, 105);"></path><path d="M286,154.599609375C424,154.599609375,424,278.75976562500017,562,278.75976562500017" stroke-width="15.72265625" style="stroke: rgb(191, 139, 105);"></path><path d="M286,171.34765625C424,171.34765625,424,366.58203125000017,562,366.58203125000017" stroke-width="0.546875" style="stroke: rgb(191, 139, 105);"></path><path d="M286,172.236328125C424,172.236328125,424,387.74414062500017,562,387.74414062500017" stroke-width="0.41015625" style="stroke: rgb(191, 139, 105);"></path><path d="M286,171.826171875C424,171.826171875,424,377.19726562500017,562,377.19726562500017" stroke-width="0.41015625" style="stroke: rgb(191, 139, 105);"></path><path d="M286,146.19140625C424,146.19140625,424,226.58203125000006,562,226.58203125000006" stroke-width="1.09375" style="stroke: rgb(191, 139, 105);"></path><path d="M286,173.466796875C424,173.466796875,424,489.79492187500006,562,489.79492187500006" stroke-width="0.13671875" style="stroke: rgb(191, 139, 105);"></path><path d="M286,164.443359375C424,164.443359375,424,305.02929687500017,562,305.02929687500017" stroke-width="3.96484375" style="stroke: rgb(191, 139, 105);"></path><path d="M286,208.6230468749997C424,208.6230468749997,424,121.47460937499994,562,121.47460937499994" stroke-width="50.17578125" style="stroke: rgb(191, 151, 105);"></path><path d="M286,237.7441406249997C424,237.7441406249997,424,203.52539062500006,562,203.52539062500006" stroke-width="8.06640625" style="stroke: rgb(191, 151, 105);"></path><path d="M286,244.5800781249997C424,244.5800781249997,424,321.45507812500017,562,321.45507812500017" stroke-width="0.41015625" style="stroke: rgb(191, 151, 105);"></path><path d="M286,245.1953124999997C424,245.1953124999997,424,333.57421875000017,562,333.57421875000017" stroke-width="0.8203125" style="stroke: rgb(191, 151, 105);"></path><path d="M286,246.1523437499997C424,246.1523437499997,424,428.90625000000017,562,428.90625000000017" stroke-width="0.2734375" style="stroke: rgb(191, 151, 105);"></path><path d="M286,245.7421874999997C424,245.7421874999997,424,356.03515625000017,562,356.03515625000017" stroke-width="0.2734375" style="stroke: rgb(191, 151, 105);"></path><path d="M286,245.9472656249997C424,245.9472656249997,424,366.92382812500017,562,366.92382812500017" stroke-width="0.13671875" style="stroke: rgb(191, 151, 105);"></path><path d="M286,243.0078124999997C424,243.0078124999997,424,287.16796875000017,562,287.16796875000017" stroke-width="1.09375" style="stroke: rgb(191, 151, 105);"></path><path d="M286,243.9648437499997C424,243.9648437499997,424,307.42187500000017,562,307.42187500000017" stroke-width="0.8203125" style="stroke: rgb(191, 151, 105);"></path><path d="M286,242.1191406249997C424,242.1191406249997,424,227.47070312500006,562,227.47070312500006" stroke-width="0.68359375" style="stroke: rgb(191, 151, 105);"></path><path d="M286,246.3574218749997C424,246.3574218749997,424,479.65820312500006,562,479.65820312500006" stroke-width="0.13671875" style="stroke: rgb(191, 151, 105);"></path><path d="M286,323.5253906249999C424,323.5253906249999,424,499.93164062500006,562,499.93164062500006" stroke-width="0.13671875" style="stroke: rgb(191, 162, 105);"></path><path d="M286,316.0742187499999C424,316.0742187499999,424,149.57031249999994,562,149.57031249999994" stroke-width="5.46875" style="stroke: rgb(191, 162, 105);"></path><path d="M286,319.7656249999999C424,319.7656249999999,424,211.52343750000006,562,211.52343750000006" stroke-width="1.9140625" style="stroke: rgb(191, 162, 105);"></path><path d="M286,323.3203124999999C424,323.3203124999999,424,321.79687500000017,562,321.79687500000017" stroke-width="0.2734375" style="stroke: rgb(191, 162, 105);"></path><path d="M286,321.3378906249999C424,321.3378906249999,424,288.46679687500017,562,288.46679687500017" stroke-width="1.23046875" style="stroke: rgb(191, 162, 105);"></path><path d="M286,322.5683593749999C424,322.5683593749999,424,308.44726562500017,562,308.44726562500017" stroke-width="1.23046875" style="stroke: rgb(191, 162, 105);"></path><path d="M286,439.384765625C424,439.384765625,424,160.02929687499994,562,160.02929687499994" stroke-width="0.13671875" style="stroke: rgb(191, 174, 105);"></path><path d="M286,349.541015625C424,349.541015625,424,155.38085937499994,562,155.38085937499994" stroke-width="2.87109375" style="stroke: rgb(191, 185, 105);"></path><path d="M286,352.548828125C424,352.548828125,424,408.42773437500017,562,408.42773437500017" stroke-width="0.13671875" style="stroke: rgb(191, 185, 105);"></path><path d="M286,352.275390625C424,352.275390625,424,345.28320312500017,562,345.28320312500017" stroke-width="0.13671875" style="stroke: rgb(191, 185, 105);"></path><path d="M286,351.181640625C424,351.181640625,424,213.64257812500006,562,213.64257812500006" stroke-width="0.41015625" style="stroke: rgb(191, 185, 105);"></path><path d="M286,352.412109375C424,352.412109375,424,356.24023437500017,562,356.24023437500017" stroke-width="0.13671875" style="stroke: rgb(191, 185, 105);"></path><path d="M286,351.728515625C424,351.728515625,424,291.20117187500017,562,291.20117187500017" stroke-width="0.68359375" style="stroke: rgb(191, 185, 105);"></path><path d="M286,352.138671875C424,352.138671875,424,309.13085937500017,562,309.13085937500017" stroke-width="0.13671875" style="stroke: rgb(191, 185, 105);"></path><path d="M286,364.326171875C424,364.326171875,424,214.59960937500006,562,214.59960937500006" stroke-width="1.50390625" style="stroke: rgb(185, 191, 105);"></path><path d="M286,363.095703125C424,363.095703125,424,157.29492187499994,562,157.29492187499994" stroke-width="0.95703125" style="stroke: rgb(185, 191, 105);"></path><path d="M286,365.48828125C424,365.48828125,424,291.95312500000017,562,291.95312500000017" stroke-width="0.8203125" style="stroke: rgb(185, 191, 105);"></path><path d="M286,280.2832031249998C424,280.2832031249998,424,459.38476562500006,562,459.38476562500006" stroke-width="0.13671875" style="stroke: rgb(174, 191, 105);"></path><path d="M286,257.3828124999998C424,257.3828124999998,424,208.51562500000006,562,208.51562500000006" stroke-width="1.9140625" style="stroke: rgb(174, 191, 105);"></path><path d="M286,269.2773437499998C424,269.2773437499998,424,238.75000000000006,562,238.75000000000006" stroke-width="21.875" style="stroke: rgb(174, 191, 105);"></path><path d="M286,376.787109375C424,376.787109375,424,158.66210937499994,562,158.66210937499994" stroke-width="1.77734375" style="stroke: rgb(162, 191, 105);"></path><path d="M286,377.8125C424,377.8125,424,215.48828125000006,562,215.48828125000006" stroke-width="0.2734375" style="stroke: rgb(162, 191, 105);"></path><path d="M286,398.564453125C424,398.564453125,424,159.61914062499994,562,159.61914062499994" stroke-width="0.13671875" style="stroke: rgb(151, 191, 105);"></path><path d="M286,398.701171875C424,398.701171875,424,292.56835937500017,562,292.56835937500017" stroke-width="0.13671875" style="stroke: rgb(151, 191, 105);"></path><path d="M286,429.248046875C424,429.248046875,424,159.89257812499994,562,159.89257812499994" stroke-width="0.13671875" style="stroke: rgb(139, 191, 105);"></path><path d="M286,334.4140624999999C424,334.4140624999999,424,153.12499999999994,562,153.12499999999994" stroke-width="1.640625" style="stroke: rgb(128, 191, 105);"></path><path d="M286,335.7128906249999C424,335.7128906249999,424,212.95898437500006,562,212.95898437500006" stroke-width="0.95703125" style="stroke: rgb(128, 191, 105);"></path><path d="M286,338.0371093749999C424,338.0371093749999,424,408.29101562500017,562,408.29101562500017" stroke-width="0.13671875" style="stroke: rgb(128, 191, 105);"></path><path d="M286,337.0800781249999C424,337.0800781249999,424,289.97070312500017,562,289.97070312500017" stroke-width="1.77734375" style="stroke: rgb(128, 191, 105);"></path><path d="M286,291.1718749999999C424,291.1718749999999,424,210.01953125000006,562,210.01953125000006" stroke-width="1.09375" style="stroke: rgb(116, 191, 105);"></path><path d="M286,290.4882812499999C424,290.4882812499999,424,146.69921874999994,562,146.69921874999994" stroke-width="0.2734375" style="stroke: rgb(116, 191, 105);"></path><path d="M286,303.2031249999999C424,303.2031249999999,424,334.12109375000017,562,334.12109375000017" stroke-width="0.2734375" style="stroke: rgb(116, 191, 105);"></path><path d="M286,302.9980468749999C424,302.9980468749999,424,287.78320312500017,562,287.78320312500017" stroke-width="0.13671875" style="stroke: rgb(116, 191, 105);"></path><path d="M286,297.3242187499999C424,297.3242187499999,424,255.29296875000006,562,255.29296875000006" stroke-width="11.2109375" style="stroke: rgb(116, 191, 105);"></path><path d="M286,459.658203125C424,459.658203125,424,160.16601562499994,562,160.16601562499994" stroke-width="0.13671875" style="stroke: rgb(105, 191, 105);"></path><path d="M286,388.0859375C424,388.0859375,424,215.76171875000006,562,215.76171875000006" stroke-width="0.2734375" style="stroke: rgb(105, 191, 116);"></path><path d="M286,388.427734375C424,388.427734375,424,377.47070312500017,562,377.47070312500017" stroke-width="0.13671875" style="stroke: rgb(105, 191, 116);"></path><path d="M286,388.291015625C424,388.291015625,424,292.43164062500017,562,292.43164062500017" stroke-width="0.13671875" style="stroke: rgb(105, 191, 116);"></path><path d="M286,408.837890625C424,408.837890625,424,159.75585937499994,562,159.75585937499994" stroke-width="0.13671875" style="stroke: rgb(105, 191, 128);"></path><path d="M286,408.974609375C424,408.974609375,424,292.70507812500017,562,292.70507812500017" stroke-width="0.13671875" style="stroke: rgb(105, 191, 128);"></path><path d="M286,419.111328125C424,419.111328125,424,215.96679687500006,562,215.96679687500006" stroke-width="0.13671875" style="stroke: rgb(105, 191, 139);"></path><path d="M286,449.521484375C424,449.521484375,424,292.84179687500017,562,292.84179687500017" stroke-width="0.13671875" style="stroke: rgb(105, 191, 151);"></path><path d="M286,469.794921875C424,469.794921875,424,309.26757812500017,562,309.26757812500017" stroke-width="0.13671875" style="stroke: rgb(105, 191, 162);"></path><path d="M286,479.931640625C424,479.931640625,424,292.97851562500017,562,292.97851562500017" stroke-width="0.13671875" style="stroke: rgb(105, 191, 174);"></path><path d="M567,79.91210937499994C705,79.91210937499994,705,184.91210937500003,843,184.91210937500003" stroke-width="159.82421875" style="stroke: rgb(105, 191, 185);"></path><path d="M567,160.02929687499994C705,160.02929687499994,705,394.794921875,843,394.794921875" stroke-width="0.41015625" style="stroke: rgb(105, 191, 185);"></path><path d="M567,344.80468750000017C705,344.80468750000017,705,379.39453125,843,379.39453125" stroke-width="1.09375" style="stroke: rgb(105, 185, 191);"></path><path d="M567,193.13476562500006C705,193.13476562500006,705,287.724609375,843,287.724609375" stroke-width="45.80078125" style="stroke: rgb(105, 174, 191);"></path><path d="M567,499.93164062500006C705,499.93164062500006,705,384.521484375,843,384.521484375" stroke-width="0.13671875" style="stroke: rgb(105, 162, 191);"></path><path d="M567,459.38476562500006C705,459.38476562500006,705,383.974609375,843,383.974609375" stroke-width="0.13671875" style="stroke: rgb(105, 151, 191);"></path><path d="M567,408.35937500000017C705,408.35937500000017,705,382.94921875,843,382.94921875" stroke-width="0.2734375" style="stroke: rgb(105, 139, 191);"></path><path d="M567,398.08593750000017C705,398.08593750000017,705,382.67578125,843,382.67578125" stroke-width="0.2734375" style="stroke: rgb(105, 128, 191);"></path><path d="M567,333.09570312500017C705,333.09570312500017,705,377.685546875,843,377.685546875" stroke-width="2.32421875" style="stroke: rgb(105, 116, 191);"></path><path d="M567,320.63476562500017C705,320.63476562500017,705,375.224609375,843,375.224609375" stroke-width="2.59765625" style="stroke: rgb(105, 105, 191);"></path><path d="M567,428.90625000000017C705,428.90625000000017,705,383.49609375,843,383.49609375" stroke-width="0.2734375" style="stroke: rgb(116, 105, 191);"></path><path d="M567,418.63281250000017C705,418.63281250000017,705,383.22265625,843,383.22265625" stroke-width="0.2734375" style="stroke: rgb(128, 105, 191);"></path><path d="M567,449.24804687500006C705,449.24804687500006,705,383.837890625,843,383.837890625" stroke-width="0.13671875" style="stroke: rgb(139, 105, 191);"></path><path d="M567,469.52148437500006C705,469.52148437500006,705,384.111328125,843,384.111328125" stroke-width="0.13671875" style="stroke: rgb(151, 105, 191);"></path><path d="M567,355.83007812500017C705,355.83007812500017,705,380.419921875,843,380.419921875" stroke-width="0.95703125" style="stroke: rgb(162, 105, 191);"></path><path d="M567,439.11132812500006C705,439.11132812500006,705,383.701171875,843,383.701171875" stroke-width="0.13671875" style="stroke: rgb(174, 105, 191);"></path><path d="M567,281.97265625000017C705,281.97265625000017,705,356.5625,843,356.5625" stroke-width="22.1484375" style="stroke: rgb(185, 105, 191);"></path><path d="M567,366.65039062500017C705,366.65039062500017,705,381.240234375,843,381.240234375" stroke-width="0.68359375" style="stroke: rgb(191, 105, 185);"></path><path d="M567,387.74414062500017C705,387.74414062500017,705,382.333984375,843,382.333984375" stroke-width="0.41015625" style="stroke: rgb(191, 105, 174);"></path><path d="M567,377.26562500000017C705,377.26562500000017,705,381.85546875,843,381.85546875" stroke-width="0.546875" style="stroke: rgb(191, 105, 162);"></path><path d="M567,243.46679687500006C705,243.46679687500006,705,328.056640625,843,328.056640625" stroke-width="34.86328125" style="stroke: rgb(191, 105, 151);"></path><path d="M567,489.79492187500006C705,489.79492187500006,705,384.384765625,843,384.384765625" stroke-width="0.13671875" style="stroke: rgb(191, 105, 139);"></path><path d="M567,306.19140625000017C705,306.19140625000017,705,370.78125,843,370.78125" stroke-width="6.2890625" style="stroke: rgb(191, 105, 128);"></path><path d="M567,479.65820312500006C705,479.65820312500006,705,384.248046875,843,384.248046875" stroke-width="0.13671875" style="stroke: rgb(191, 105, 116);"></path></g><g class="nodes" font-family="Arial, Helvetica" font-size="10"><g><rect x="281" y="419.04296875" height="0.13671875" width="5" fill="#000"></rect><text x="275" y="419.111328125" dy="0.35em" text-anchor="end">(not set)</text></g><g><rect x="281" y="387.94921875" height="0.546875" width="5" fill="#000"></rect><text x="275" y="388.22265625" dy="0.35em" text-anchor="end">Amazon Silk</text></g><g><rect x="281" y="398.49609375" height="0.2734375" width="5" fill="#000"></rect><text x="275" y="398.6328125" dy="0.35em" text-anchor="end">Android Browser</text></g><g><rect x="281" y="290.3515624999999" height="12.98828125" width="5" fill="#000"></rect><text x="275" y="296.8457031249999" dy="0.35em" text-anchor="end">Android Webview</text></g><g><rect x="281" y="429.1796875" height="0.13671875" width="5" fill="#000"></rect><text x="275" y="429.248046875" dy="0.35em" text-anchor="end">BlackBerry</text></g><g><rect x="281" y="20" height="153.5351562499997" width="5" fill="#000"></rect><text x="275" y="96.76757812499984" dy="0.35em" text-anchor="end">Chrome</text></g><g><rect x="281" y="408.76953125" height="0.2734375" width="5" fill="#000"></rect><text x="275" y="408.90625" dy="0.35em" text-anchor="end">Coc Coc</text></g><g><rect x="281" y="348.10546875" height="4.51171875" width="5" fill="#000"></rect><text x="275" y="350.361328125" dy="0.35em" text-anchor="end">Edge</text></g><g><rect x="281" y="313.3398437499999" height="10.25390625" width="5" fill="#000"></rect><text x="275" y="318.4667968749999" dy="0.35em" text-anchor="end">Firefox</text></g><g><rect x="281" y="333.5937499999999" height="4.511718750000114" width="5" fill="#000"></rect><text x="275" y="335.84960937499994" dy="0.35em" text-anchor="end">Internet Explorer</text></g><g><rect x="281" y="439.31640625" height="0.13671875" width="5" fill="#000"></rect><text x="275" y="439.384765625" dy="0.35em" text-anchor="end">Maxthon</text></g><g><rect x="281" y="449.453125" height="0.13671875" width="5" fill="#000"></rect><text x="275" y="449.521484375" dy="0.35em" text-anchor="end">Mozilla</text></g><g><rect x="281" y="459.58984375" height="0.13671875" width="5" fill="#000"></rect><text x="275" y="459.658203125" dy="0.35em" text-anchor="end">Opera</text></g><g><rect x="281" y="362.6171875" height="3.28125" width="5" fill="#000"></rect><text x="275" y="364.2578125" dy="0.35em" text-anchor="end">Opera Mini</text></g><g><rect x="281" y="469.7265625" height="0.13671875" width="5" fill="#000"></rect><text x="275" y="469.794921875" dy="0.35em" text-anchor="end">Puffin</text></g><g><rect x="281" y="183.5351562499997" height="62.890625000000114" width="5" fill="#000"></rect><text x="275" y="214.98046874999974" dy="0.35em" text-anchor="end">Safari</text></g><g><rect x="281" y="256.4257812499998" height="23.925781250000114" width="5" fill="#000"></rect><text x="275" y="268.38867187499983" dy="0.35em" text-anchor="end">Safari (in-app)</text></g><g><rect x="281" y="375.8984375" height="2.05078125" width="5" fill="#000"></rect><text x="275" y="376.923828125" dy="0.35em" text-anchor="end">UC Browser</text></g><g><rect x="281" y="479.86328125" height="0.13671875" width="5" fill="#000"></rect><text x="275" y="479.931640625" dy="0.35em" text-anchor="end">YaBrowser</text></g><g><rect x="0" y="251.64062500000009" height="118.80859375" width="5" fill="#000"></rect><text x="11" y="311.0449218750001" dy="0.35em" text-anchor="start">desktop</text></g><g><rect x="0" y="100.00000000000003" height="141.64062500000006" width="5" fill="#000"></rect><text x="11" y="170.82031250000006" dy="0.35em" text-anchor="start">mobile</text></g><g><rect x="0" y="380.4492187500001" height="19.550781249999886" width="5" fill="#000"></rect><text x="11" y="390.22460937500006" dy="0.35em" text-anchor="start">tablet</text></g><g><rect x="562" y="170.23437500000006" height="45.80078125" width="5" fill="#000"></rect><text x="556" y="193.13476562500006" dy="0.35em" text-anchor="end">(direct)</text></g><g><rect x="562" y="319.33593750000017" height="2.59765625" width="5" fill="#000"></rect><text x="556" y="320.63476562500017" dy="0.35em" text-anchor="end">analytics.google.com</text></g><g><rect x="562" y="397.94921875000017" height="0.2734375" width="5" fill="#000"></rect><text x="556" y="398.08593750000017" dy="0.35em" text-anchor="end">ask</text></g><g><rect x="562" y="344.25781250000017" height="1.09375" width="5" fill="#000"></rect><text x="556" y="344.80468750000017" dy="0.35em" text-anchor="end">baidu</text></g><g><rect x="562" y="408.22265625000017" height="0.2734375" width="5" fill="#000"></rect><text x="556" y="408.35937500000017" dy="0.35em" text-anchor="end">bing</text></g><g><rect x="562" y="418.49609375000017" height="0.2734375" width="5" fill="#000"></rect><text x="556" y="418.63281250000017" dy="0.35em" text-anchor="end">blog.golang.org</text></g><g><rect x="562" y="439.04296875000006" height="0.13671875" width="5" fill="#000"></rect><text x="556" y="439.11132812500006" dy="0.35em" text-anchor="end">dfa</text></g><g><rect x="562" y="449.17968750000006" height="0.13671875" width="5" fill="#000"></rect><text x="556" y="449.24804687500006" dy="0.35em" text-anchor="end">docs.google.com</text></g><g><rect x="562" y="303.04687500000017" height="6.2890625" width="5" fill="#000"></rect><text x="556" y="306.19140625000017" dy="0.35em" text-anchor="end">facebook.com</text></g><g><rect x="562" y="-5.684341886080802e-14" height="160.2343750000001" width="5" fill="#000"></rect><text x="556" y="80.1171875" dy="0.35em" text-anchor="end">google</text></g><g><rect x="562" y="355.35156250000017" height="0.95703125" width="5" fill="#000"></rect><text x="556" y="355.83007812500017" dy="0.35em" text-anchor="end">google.com</text></g><g><rect x="562" y="387.53906250000017" height="0.41015625" width="5" fill="#000"></rect><text x="556" y="387.74414062500017" dy="0.35em" text-anchor="end">l.facebook.com</text></g><g><rect x="562" y="459.31640625000006" height="0.13671875" width="5" fill="#000"></rect><text x="556" y="459.38476562500006" dy="0.35em" text-anchor="end">m.baidu.com</text></g><g><rect x="562" y="226.03515625000006" height="34.863281250000114" width="5" fill="#000"></rect><text x="556" y="243.4667968750001" dy="0.35em" text-anchor="end">m.facebook.com</text></g><g><rect x="562" y="331.93359375000017" height="2.32421875" width="5" fill="#000"></rect><text x="556" y="333.09570312500017" dy="0.35em" text-anchor="end">Partners</text></g><g><rect x="562" y="428.76953125000017" height="0.2734374999998863" width="5" fill="#000"></rect><text x="556" y="428.9062500000001" dy="0.35em" text-anchor="end">qiita.com</text></g><g><rect x="562" y="366.30859375000017" height="0.68359375" width="5" fill="#000"></rect><text x="556" y="366.65039062500017" dy="0.35em" text-anchor="end">quora.com</text></g><g><rect x="562" y="376.99218750000017" height="0.546875" width="5" fill="#000"></rect><text x="556" y="377.26562500000017" dy="0.35em" text-anchor="end">reddit.com</text></g><g><rect x="562" y="469.45312500000006" height="0.13671875" width="5" fill="#000"></rect><text x="556" y="469.52148437500006" dy="0.35em" text-anchor="end">search.xfinity.com</text></g><g><rect x="562" y="479.58984375000006" height="0.13671875" width="5" fill="#000"></rect><text x="556" y="479.65820312500006" dy="0.35em" text-anchor="end">t.co</text></g><g><rect x="562" y="489.72656250000006" height="0.13671875" width="5" fill="#000"></rect><text x="556" y="489.79492187500006" dy="0.35em" text-anchor="end">web.facebook.com</text></g><g><rect x="562" y="499.86328125000006" height="0.13671875" width="5" fill="#000"></rect><text x="556" y="499.93164062500006" dy="0.35em" text-anchor="end">yahoo</text></g><g><rect x="562" y="270.89843750000017" height="22.1484375" width="5" fill="#000"></rect><text x="556" y="281.97265625000017" dy="0.35em" text-anchor="end">youtube.com</text></g><g><rect x="843" y="105.00000000000003" height="279.58984374999994" width="5" fill="#000"></rect><text x="837" y="244.794921875" dy="0.35em" text-anchor="end">0</text></g><g><rect x="843" y="394.58984375" height="0.41015625" width="5" fill="#000"></rect><text x="837" y="394.794921875" dy="0.35em" text-anchor="end">1</text></g></g></g></svg>